<svg width="282" height="140" fill="none" xmlns="http://www.w3.org/2000/svg"><path d="M232.127 79.698a78.974 78.974 0 00-1.66-2.339l10.682-7.851 13.982-10.278c16.851 23.343 25.882 50.975 26.186 80.141h-30.242l-.004-.24c-.016-.978-.031-1.966-.081-2.944a111.848 111.848 0 00-2.116-16.699 110.815 110.815 0 00-6.486-20.888 109.988 109.988 0 00-4.687-9.727 110.867 110.867 0 00-5.574-9.175zM.504 139.378C.81 110.555 9.743 83.052 26.41 59.633l10.094 7.332 13.249 9.623a102.885 102.885 0 00-2.204 3.11A111.32 111.32 0 0037.287 98.6a110.479 110.479 0 00-8.173 31.937c-.19 1.87-.333 3.754-.43 5.651-.05.979-.065 1.968-.08 2.947l-.004.243H.504zM98.973 6.905A140.411 140.411 0 01140.911.5c14.272 0 28.372 2.166 41.937 6.405l-4.53 13.938-4.865 14.97-.009-.003c-.164-.057-.335-.117-.511-.171a110.64 110.64 0 00-21.717-4.43 112.045 112.045 0 00-11.379-.573 113.06 113.06 0 00-11.378.574 111.23 111.23 0 00-11.051 1.687c-1.811.37-3.607.784-5.385 1.242-1.297.333-2.576.704-3.846 1.084l-5.115-15.736-4.089-12.582z" fill="#fff" fill-opacity=".1" stroke="#fff"/><path d="M176.707 36.911l-.347-.114 9.409-28.954c26.525 8.95 50.353 26.178 67.396 48.724l-24.59 18.182a111.012 111.012 0 00-2.856-3.617 111.63 111.63 0 00-11.048-11.587 111.548 111.548 0 00-8.243-6.8 111.478 111.478 0 00-13.54-8.678 110.711 110.711 0 00-14.784-6.679c-.457-.167-.932-.323-1.397-.477z" fill="#22C3B2" stroke="#fff"/><path d="M39.355 65.247l-11.143-8.094c17.003-22.817 40.99-40.258 67.84-49.31l4.54 13.964 4.657 14.33c-1.23.397-2.462.806-3.679 1.251a110.632 110.632 0 00-14.783 6.68 111.112 111.112 0 00-13.54 8.676 111.826 111.826 0 00-19.292 18.388c-.812.984-1.595 1.992-2.366 3l-12.234-8.885z" fill="#fff" fill-opacity=".1" stroke="#fff"/><path d="M12.341 120.916l.412-1.267 4.187 1.36-.411 1.267-4.188-1.36zm4.865 3.04l1.266-3.898-6.41-2.081-1.266 3.897 6.41 2.082zm-5.201-9.274l3.78 1.228-.27.826-3.618-1.175-.429 1.321 9.288 3.016.429-1.321-4.531-1.471.268-.827 4.971 1.615.436-1.342-9.888-3.212-.436 1.342zm3.808-6.715c.418-1.288 1.074-1.989 1.782-1.759.72.234.837 1.186.419 2.474-.422 1.299-1.077 2.001-1.797 1.767-.708-.23-.826-1.182-.404-2.482zm3.328 1.081c.684-2.104.292-3.857-1.071-4.3-1.343-.436-2.7.749-3.385 2.853-.687 2.115-.28 3.861 1.061 4.297 1.364.443 2.708-.735 3.395-2.85zm2.203-4.258l-2.91 8.955 1.138.369 1.214-3.736 3.232 1.049.46-1.417-3.231-1.049 1.235-3.801-1.138-.37zm-2.87-6.806l-.46 1.417 6.529 2.12.279-.859c.467-1.438.897-3.055 1.088-4.81l-1.205-.236c-.182 1.472-.51 2.849-.883 4.105l-5.347-1.737zm5.2-6.501l-.45 1.385-3.737-1.214-.46 1.417 9.878 3.208.46-1.417-4.971-1.614.45-1.385-1.17-.38zm-3.012-2.568l3.833 1.245 1.14-3.511-3.832-1.245-.43 1.32.838.273-.275.848-.838-.272-.436 1.342zm2.347-.721l.276-.849.794.258-.275.849-.795-.258zm-1.028-3.337l3.833 1.245 1.133-3.49-3.833-1.245-.432 1.332.837.272-.272.837-.837-.272-.43 1.32zm2.34-.7l.272-.838.794.258-.272.838-.794-.258zm.595 6.9l1.127.365 2.903-8.932-1.128-.366-2.902 8.932zm2.153-.453l3.232 1.05 2.218-6.829-3.231-1.05-2.22 6.829zm2.871-5.073l1.02.33-1.315 4.048-1.02-.33 1.315-4.048zM55.764 41.955l-1.174.918 4.227 5.407.711-.556c1.192-.931 2.453-2.03 3.592-3.379l-.867-.87c-.973 1.119-2.016 2.077-3.027 2.91l-3.462-4.43zm7.946-2.483l-1.148.897-2.42-3.096-1.174.918 6.396 8.182 1.175-.917-3.22-4.118 1.148-.897-.757-.969zm-1.062-3.813l2.482 3.176 2.91-2.273-2.483-3.175-1.094.855.543.693-.703.55-.542-.694-1.113.869zm2.35.715l.703-.55.514.659-.703.55-.514-.66zm1.013-3.342l2.482 3.176 2.891-2.26-2.482-3.174-1.103.861.542.694-.693.542-.543-.694-1.094.855zm2.332.729l.694-.542.514.658-.694.542-.514-.658zm-3.365 6.052l.73.934 7.401-5.782-.73-.934-7.4 5.782zm2.038.83l2.093 2.676 5.657-4.42-2.092-2.677-5.658 4.42zm5.217-2.602l.66.846-3.353 2.62-.66-.845 3.353-2.62zM131.958 14.006h4.448v1.456h-4.448v-1.456zm2.969 4.549v-1.908h2.946v-5.43h-1.467v1.614h-4.448v-1.614h-1.479v5.43h2.958v1.908h-3.952v1.208h9.415v-1.208h-3.973zm9.617 1.332c-1.434 0-2.1-.192-2.1-.62 0-.43.666-.61 2.1-.61 1.445 0 2.111.18 2.111.61 0 .428-.666.62-2.111.62zm0-2.325c-2.28 0-3.601.587-3.601 1.704 0 1.107 1.321 1.705 3.601 1.705 2.292 0 3.612-.599 3.612-1.705 0-1.117-1.32-1.704-3.612-1.704zm.756-1.626v-.643h2.969v-1.13h-5.757V13.6h5.441v-1.084h-5.441v-.541h5.678v-1.13h-7.157v4.449h2.777v.643h-3.951v1.163h9.404v-1.163H145.3zM207.675 33.205c1.677 1.095 3.094 1.37 4.071.976-.111 1.047.554 2.34 2.069 3.65l1.035-.605c-1.428-1.217-1.934-2.234-1.838-2.869l2.191 1.651.68-.901-6.15-4.633-.679.901 2.173 1.637c-.583.268-1.701.062-3.256-.969l-.296 1.162zm-.425 6.903c-.866-.652-1.23-1.068-1.067-1.285.17-.225.67.01 1.536.663.874.659 1.248 1.082 1.078 1.307-.163.217-.672-.026-1.547-.685zm1.06-1.406c-1.596-1.203-2.817-1.515-3.354-.802-.536.712.107 1.79 1.703 2.992 1.614 1.216 2.828 1.537 3.365.825.536-.712-.1-1.8-1.714-3.015zm1.895-1.258l-1.19-.897-.442.586-2.47-1.86-.666.883 6.14 4.625.666-.883-2.48-1.868.442-.586zm.897-1.19l.571-.757-1.19-.897-.571.757-3.147-2.37-.7.928 7.529 5.672.7-.928-3.192-2.405zm10.025 2.733c-1.83-1.379-3.464-1.649-4.218-.648-.761 1.01-.044 2.497 1.786 3.876 1.83 1.378 3.467 1.664 4.228.655.754-1.001.035-2.504-1.796-3.883zm-.686.91c1.136.857 1.609 1.58 1.255 2.049-.353.469-1.179.214-2.315-.642-1.127-.849-1.599-1.573-1.246-2.041.353-.47 1.179-.214 2.306.635zm-6.131 2.152l-2.12 2.813 5.735 4.32 2.12-2.813-5.735-4.32zm3.863 4.366l-.721.955-3.399-2.56.72-.956 3.4 2.56zm-3.589-6.548l-.707.937 7.502 5.652.707-.938-7.502-5.651zM255.802 83.905l.434 1.26-4.163 1.433-.434-1.26 4.163-1.433zm-5.714.499l1.334 3.874 6.373-2.193-1.335-3.874-6.372 2.193zm9.735 4.278l-3.757 1.293-.283-.822 3.597-1.238-.452-1.313-9.233 3.178.452 1.313 4.504-1.55.283.822-4.942 1.7.459 1.335 9.831-3.384-.459-1.334zm1 7.654c.441 1.28.34 2.235-.365 2.478-.715.246-1.382-.444-1.823-1.725-.445-1.291-.344-2.246.371-2.492.705-.242 1.372.448 1.817 1.739zm-3.309 1.139c.72 2.092 2.088 3.257 3.444 2.79 1.334-.46 1.706-2.223.986-4.315-.724-2.103-2.1-3.253-3.434-2.794-1.355.467-1.72 2.216-.996 4.319zm.803 4.726l-3.065-8.902-1.132.39 1.279 3.714-3.213 1.105.486 1.41 3.213-1.107 1.301 3.779 1.131-.389zm3.528 3.692c.779 1.845 1.799 2.867 2.829 3.085-.677.806-.849 2.25-.326 4.184l1.197.077c-.504-1.808-.354-2.934.08-3.406l.893 2.594 1.068-.368-2.507-7.279-1.067.367.886 2.572c-.633-.104-1.444-.899-2.158-2.624l-.895.798zm-4.212 5.485c-.353-1.025-.423-1.574-.167-1.662.267-.092.55.384.903 1.408.357 1.036.43 1.595.163 1.687-.256.088-.543-.398-.899-1.433zm1.665-.573c-.651-1.89-1.488-2.831-2.332-2.541-.843.29-.913 1.544-.262 3.433.658 1.911 1.485 2.856 2.328 2.566.843-.29.924-1.548.266-3.458zm2.274.017l-.485-1.409-.694.239-1.007-2.925-1.046.36 2.503 7.269 1.046-.36-1.011-2.935.694-.239zm1.409-.485l.897-.309-.485-1.409-.897.309-1.283-3.725-1.099.378 3.069 8.913 1.099-.379-1.301-3.778zm6.782 7.872c-.746-2.166-1.949-3.304-3.134-2.896-1.196.411-1.433 2.045-.687 4.212.746 2.166 1.943 3.319 3.138 2.907 1.185-.408 1.429-2.056.683-4.223zm-1.078.372c.463 1.344.45 2.208-.105 2.399-.555.192-1.097-.481-1.56-1.826-.459-1.335-.447-2.199.109-2.39.555-.191 1.097.482 1.556 1.817zm-6.285-1.646l-3.331 1.146 2.338 6.789 3.33-1.146-2.337-6.789zm.76 5.78l-1.132.389-1.385-4.024 1.131-.389 1.386 4.024zm.687-7.436l-1.11.382 3.058 8.881 1.11-.382-3.058-8.881z" fill="#fff"/></svg>