<svg width="282" height="140" fill="none" xmlns="http://www.w3.org/2000/svg"><path d="M232.127 79.698a78.974 78.974 0 00-1.66-2.339l10.682-7.851 13.982-10.278c16.851 23.343 25.882 50.975 26.186 80.141h-30.242l-.004-.24c-.016-.978-.031-1.966-.081-2.944a111.848 111.848 0 00-2.116-16.699 110.815 110.815 0 00-6.486-20.888 109.988 109.988 0 00-4.687-9.727 110.867 110.867 0 00-5.574-9.175zM.504 139.378C.81 110.555 9.743 83.052 26.41 59.633l10.094 7.332 13.249 9.623a102.885 102.885 0 00-2.204 3.11A111.32 111.32 0 0037.287 98.6a110.479 110.479 0 00-8.173 31.937c-.19 1.87-.333 3.754-.43 5.651-.05.979-.065 1.968-.08 2.947l-.004.243H.504zM98.973 6.905A140.411 140.411 0 01140.911.5c14.272 0 28.372 2.166 41.937 6.405l-4.53 13.938-4.865 14.97-.009-.003c-.164-.057-.335-.117-.511-.171a110.64 110.64 0 00-21.717-4.43 112.045 112.045 0 00-11.379-.573 113.06 113.06 0 00-11.378.574 111.23 111.23 0 00-11.051 1.687c-1.811.37-3.607.784-5.385 1.242-1.297.333-2.576.704-3.846 1.084l-5.115-15.736-4.089-12.582z" fill="#fff" fill-opacity=".1" stroke="#fff"/><path d="M176.707 36.911l-.347-.114 9.409-28.954c26.525 8.95 50.353 26.178 67.396 48.724l-24.59 18.182a111.012 111.012 0 00-2.856-3.617 111.63 111.63 0 00-11.048-11.587 111.548 111.548 0 00-8.243-6.8 111.478 111.478 0 00-13.54-8.678 110.711 110.711 0 00-14.784-6.679c-.457-.167-.932-.323-1.397-.477z" fill="#22C3B2" stroke="#fff"/><path d="M39.355 65.247l-11.143-8.094c17.003-22.817 40.99-40.258 67.84-49.31l4.54 13.964 4.657 14.33c-1.23.397-2.462.806-3.679 1.251a110.632 110.632 0 00-14.783 6.68 111.112 111.112 0 00-13.54 8.676 111.826 111.826 0 00-19.292 18.388c-.812.984-1.595 1.992-2.366 3l-12.234-8.885z" fill="#fff" fill-opacity=".1" stroke="#fff"/><path d="M22.764 111.109a1.8 1.8 0 01-.558-.013c.29.5.34 1.043.149 1.63-.181.556-.492.965-.932 1.227-.44.26-.904.31-1.394.151-.601-.196-.99-.567-1.168-1.116-.176-.551-.129-1.249.141-2.092l.227-.698-.325-.105c-.262-.085-.494-.085-.696 0-.2.082-.347.268-.442.558-.083.255-.087.476-.012.662.076.183.22.309.433.379l-.492 1.515a1.6 1.6 0 01-.813-.601c-.214-.293-.34-.651-.376-1.072-.04-.423.014-.865.164-1.326.227-.699.584-1.196 1.07-1.49.483-.299 1.043-.345 1.679-.139l2.459.799c.539.171.97.228 1.294.171l.09.029-.498 1.531zm-1.46.911c.072-.224.09-.446.054-.667a1.048 1.048 0 00-.268-.55l-.975-.317-.184.566c-.246.759-.116 1.247.393 1.467l.087.034a.64.64 0 00.532-.048c.165-.093.285-.255.36-.485zm1.805-8.982l-3.37-1.918.475-1.463 5.202 3.289-.412 1.269-3.92-.085 3.222 2.235-.41 1.263-6.143-.395.475-1.463 3.847.432-3.27-2.209.356-1.096 3.948.141zm3.157-2.707l-4.56-1.482-.275.844-1.111-.36.274-.845-.483-.156c-.636-.207-1.07-.549-1.3-1.026-.235-.481-.245-1.05-.031-1.708.068-.21.186-.455.355-.736l1.17.397a2.036 2.036 0 00-.198.446c-.185.57-.01.941.525 1.115l.456.148.366-1.127 1.111.36-.366 1.128 4.561 1.481-.494 1.521zm1.643-7.019c.333.522.392 1.113.177 1.773-.197.609-.523 1.017-.977 1.225-.453.204-1.018.2-1.695-.012l-3.716-1.207.492-1.515 3.664 1.19c.591.192.974.019 1.149-.52.167-.513.103-.924-.191-1.232l-4.016-1.304.494-1.52 5.673 1.842-.464 1.426-.59-.146zm1.945-4.022l-.494 1.52-8.053-2.615.494-1.52 8.053 2.615zM64.365 42.236c.588.753.887 1.467.896 2.14.007.671-.278 1.232-.854 1.682-.51.398-1.07.52-1.68.367l.335.544-1.13.882-5.214-6.67 1.256-.981 1.87 2.393c.025-.565.273-1.032.745-1.4.574-.449 1.188-.588 1.842-.419.656.164 1.282.629 1.88 1.393l.054.07zm-1.327.89c-.37-.475-.716-.762-1.037-.861-.322-.103-.633-.038-.931.196-.4.312-.547.69-.442 1.135l1.45 1.854c.411.21.818.158 1.22-.156.406-.317.516-.725.331-1.224-.088-.238-.285-.553-.59-.944zm6.63-1.319a1.77 1.77 0 01-.455-.323c-.04.577-.302 1.055-.788 1.435-.46.36-.947.525-1.46.496a1.635 1.635 0 01-1.239-.654c-.389-.498-.504-1.024-.344-1.578.162-.556.591-1.108 1.287-1.656l.578-.451-.21-.27c-.17-.217-.363-.346-.578-.388-.212-.045-.438.027-.678.215-.211.165-.338.346-.38.542-.04.194.009.38.147.556l-1.255.981a1.6 1.6 0 01-.339-.953c-.013-.362.083-.729.288-1.099.203-.373.495-.709.878-1.007.579-.453 1.152-.665 1.72-.637.567.022 1.057.297 1.47.824l1.591 2.036c.352.444.678.733.978.867l.058.073-1.269.991zm-1.72-.062c.185-.144.325-.318.418-.522.09-.206.119-.408.086-.605l-.632-.808-.469.366c-.628.491-.793.97-.494 1.436l.053.077a.638.638 0 00.467.257c.19.016.38-.051.571-.2zm1.707-3.768c-.572-.732-.865-1.443-.877-2.133-.01-.693.271-1.261.842-1.707a1.827 1.827 0 011.534-.373l-1.874-2.398 1.26-.984 5.214 6.67-1.134.886-.451-.451c-.007.635-.257 1.145-.75 1.53-.552.431-1.167.562-1.842.39-.675-.177-1.315-.654-1.922-1.43zm1.327-.89c.344.44.684.718 1.02.833.338.114.652.057.945-.171.388-.303.534-.68.437-1.132l-1.45-1.855c-.411-.205-.81-.157-1.195.144-.605.473-.524 1.2.243 2.182zM123.746 13.036l.05.689c.426-.533.998-.8 1.714-.8.632 0 1.103.186 1.411.557.309.372.467.926.474 1.665V19h-1.593v-3.814c0-.338-.073-.583-.22-.733-.147-.155-.392-.232-.733-.232-.449 0-.785.191-1.009.573V19h-1.593v-5.964h1.499zm4.614 2.927c0-.592.114-1.12.342-1.582a2.51 2.51 0 01.981-1.075c.43-.254.928-.38 1.494-.38.804 0 1.46.246 1.967.738.511.493.796 1.162.855 2.007l.011.408c0 .915-.256 1.65-.766 2.204-.511.552-1.196.827-2.056.827-.86 0-1.547-.275-2.062-.827-.511-.55-.766-1.3-.766-2.248v-.072zm1.593.116c0 .566.107 1 .32 1.3.213.298.518.447.915.447.386 0 .687-.147.904-.441.216-.298.325-.772.325-1.422 0-.555-.109-.985-.325-1.29-.217-.305-.522-.458-.915-.458-.39 0-.691.153-.904.458-.213.301-.32.77-.32 1.406zm8.389-1.55a4.306 4.306 0 00-.573-.043c-.602 0-.998.204-1.185.611V19h-1.593v-5.964h1.505l.044.71c.32-.547.762-.82 1.328-.82.177 0 .342.024.496.071l-.022 1.533zm2.266-1.493l.05.667c.422-.518.994-.777 1.714-.777.768 0 1.295.303 1.582.91.419-.607 1.016-.91 1.791-.91.647 0 1.128.189 1.444.567.316.375.475.941.475 1.698V19h-1.599v-3.803c0-.338-.066-.585-.198-.739-.133-.158-.366-.237-.701-.237-.477 0-.808.228-.992.684L144.18 19h-1.593v-3.798c0-.345-.068-.595-.204-.75-.136-.154-.368-.231-.695-.231-.452 0-.779.187-.981.562V19h-1.593v-5.964h1.494zM152.349 19a1.752 1.752 0 01-.16-.535c-.386.43-.887.645-1.505.645-.584 0-1.069-.169-1.455-.507a1.635 1.635 0 01-.573-1.279c0-.632.233-1.117.7-1.455.47-.338 1.148-.509 2.034-.512h.733v-.342c0-.276-.072-.496-.215-.662-.14-.165-.362-.248-.667-.248-.268 0-.48.064-.634.193a.658.658 0 00-.226.53h-1.593c0-.346.107-.666.32-.96.213-.294.514-.524.904-.689.389-.169.827-.253 1.312-.253.735 0 1.317.185 1.747.556.434.368.65.886.65 1.555v2.585c.004.566.083.994.237 1.284V19h-1.609zm-1.318-1.108c.236 0 .452-.051.651-.154.198-.107.345-.248.441-.425v-1.025h-.595c-.798 0-1.222.276-1.274.827l-.005.094c0 .198.07.361.209.49.14.129.331.193.573.193zM156.626 19h-1.598v-8.467h1.598V19zM203.12 31.905c.564-.72 1.188-1.168 1.874-1.34.688-.171 1.324-.03 1.906.425.515.403.778.893.789 1.47l.398-.402 1.138.889-3.55 4.543c-.322.41-.695.695-1.121.852a2.27 2.27 0 01-1.33.08c-.463-.105-.922-.335-1.376-.69a3.229 3.229 0 01-.845-.996c-.221-.392-.331-.762-.329-1.11l1.154-.33c.038.594.281 1.066.727 1.414.333.26.662.373.988.338.323-.032.613-.211.868-.538l.197-.252c-.545.1-1.054-.033-1.526-.402-.564-.441-.85-1.019-.856-1.732-.001-.715.283-1.437.853-2.166l.041-.052zm1.184 1.072c-.333.426-.509.827-.528 1.204-.017.374.124.677.422.91.382.299.768.37 1.157.212l1.545-1.976c.056-.418-.103-.773-.476-1.065a1.05 1.05 0 00-1.001-.188c-.364.113-.736.414-1.119.903zm3.892 2.88c.364-.466.779-.811 1.243-1.036a2.512 2.512 0 011.436-.243c.495.065.965.272 1.411.62.634.496.999 1.094 1.096 1.794.099.702-.088 1.405-.563 2.107l-.242.328c-.564.72-1.218 1.142-1.962 1.265-.742.12-1.452-.085-2.129-.614-.678-.53-1.05-1.17-1.115-1.92-.064-.75.197-1.497.781-2.244l.044-.057zm1.184 1.072c-.349.446-.532.853-.549 1.222-.016.366.133.67.446.915.304.237.632.307.984.21.354-.102.731-.409 1.132-.921.342-.437.521-.843.538-1.217.017-.373-.13-.681-.439-.923-.307-.24-.639-.306-.995-.197-.353.107-.726.41-1.117.911zm3.846 2.858c.364-.466.779-.812 1.243-1.036a2.51 2.51 0 011.436-.243c.494.065.965.272 1.411.62.634.496.999 1.093 1.096 1.794.099.702-.089 1.404-.563 2.107l-.242.328c-.564.72-1.218 1.142-1.962 1.265-.742.12-1.452-.085-2.129-.614-.678-.53-1.05-1.17-1.116-1.921-.063-.749.198-1.497.782-2.244l.044-.056zm1.184 1.072c-.349.446-.532.853-.549 1.222-.016.365.133.67.446.915.304.237.632.307.984.209.354-.101.731-.408 1.132-.92.341-.438.521-.843.538-1.217.017-.374-.13-.681-.439-.924-.307-.24-.639-.305-.995-.196-.353.106-.726.41-1.117.91zm3.839 2.866c.573-.732 1.192-1.188 1.859-1.366.669-.177 1.289-.042 1.86.404.457.357.702.823.733 1.398l1.874-2.397 1.26.984-5.215 6.67-1.133-.885.329-.547c-.618.146-1.173.027-1.666-.357-.553-.432-.827-.997-.824-1.694.009-.697.316-1.434.923-2.21zm1.184 1.072c-.344.44-.531.838-.561 1.192-.03.355.102.646.394.875.388.303.79.353 1.205.15l1.449-1.854c.1-.45-.043-.825-.428-1.126-.606-.472-1.292-.218-2.059.763zM254.199 91.04c.865-.297 1.632-.332 2.301-.104.671.232 1.126.697 1.367 1.395.213.618.167 1.173-.139 1.663l.553-.12.471 1.365-5.452 1.876c-.494.17-.962.205-1.404.104a2.265 2.265 0 01-1.159-.656c-.331-.34-.591-.784-.779-1.33a3.258 3.258 0 01-.166-1.295c.028-.449.138-.819.329-1.11l1.147.352c-.291.52-.344 1.047-.16 1.582.137.4.352.674.644.822.289.15.629.156 1.022.021l.302-.104c-.512-.212-.866-.601-1.061-1.168-.233-.677-.158-1.317.226-1.92.388-.6 1.019-1.05 1.895-1.351l.063-.022zm.409 1.544c-.511.176-.877.416-1.098.722a1.037 1.037 0 00-.142.993c.158.459.443.728.855.808l2.371-.817c.275-.32.335-.704.181-1.152a1.05 1.05 0 00-.737-.702c-.366-.103-.843-.054-1.43.148zm4.222 7.472a4.172 4.172 0 00-.145-.557c-.196-.57-.517-.876-.964-.921l-3.69 1.27-.519-1.506 5.64-1.941.49 1.423-.658.273c.621.124 1.024.454 1.209.989.057.166.088.33.093.492l-1.456.478zm-3.222 4.711c-.285-.827-.263-1.588.065-2.284.329-.692.916-1.183 1.76-1.474l.146-.05c.566-.195 1.109-.26 1.63-.194.523.065.974.256 1.351.573.382.319.662.736.839 1.25.265.771.231 1.461-.104 2.07-.333.612-.946 1.072-1.839 1.379l-.615.212-1.237-3.591c-.351.175-.596.423-.735.743-.137.323-.142.672-.012 1.047.199.581.566.962 1.099 1.144l-.574 1.025a2.42 2.42 0 01-1.067-.659 3.22 3.22 0 01-.707-1.191zm4.569-1.765a1.007 1.007 0 00-.553-.625c-.265-.115-.594-.134-.988-.057l.722 2.095.12-.041c.331-.122.557-.3.678-.536.124-.237.131-.516.021-.836zm-2.245 8.177c.112-.117.263-.225.454-.326-.532-.225-.899-.629-1.1-1.213-.19-.552-.188-1.066.006-1.541.195-.471.536-.79 1.022-.958.598-.205 1.133-.143 1.604.189.473.334.855.92 1.147 1.756l.239.693.323-.111c.261-.09.446-.229.555-.419.111-.185.117-.423.018-.711-.087-.254-.217-.432-.389-.536a.658.658 0 00-.574-.042l-.518-1.506a1.595 1.595 0 011.011-.01c.347.106.662.316.945.63.287.314.509.7.667 1.158.239.695.254 1.306.043 1.834-.207.529-.626.903-1.258 1.121l-2.445.841c-.534.187-.913.402-1.137.642l-.089.03-.524-1.521zm.619-1.607c.077.223.196.411.358.565.165.153.347.246.545.279l.969-.334-.194-.563c-.259-.754-.658-1.065-1.196-.934l-.091.025a.636.636 0 00-.395.358c-.076.173-.075.375.004.604zm7.873 3.447l-1.386.477.332.964-1.105.38-.332-.964-2.815.969c-.208.071-.344.163-.407.274-.062.111-.055.279.023.505.057.167.12.31.189.431l-1.142.392a3.278 3.278 0 01-.449-.865c-.364-1.056-.016-1.778 1.044-2.166l3.038-1.046-.283-.824 1.105-.38.283.824 1.387-.478.518 1.507z" fill="#fff"/></svg>